<svg xmlns="http://www.w3.org/2000/svg" width="83" height="81" viewBox="0 0 83 81">
  <metadata><?xpacket begin="﻿" id="W5M0MpCehiHzreSzNTczkc9d"?>
<x:xmpmeta xmlns:x="adobe:ns:meta/" x:xmptk="Adobe XMP Core 5.6-c138 79.159824, 2016/09/14-01:09:01        ">
   <rdf:RDF xmlns:rdf="http://www.w3.org/1999/02/22-rdf-syntax-ns#">
      <rdf:Description rdf:about=""/>
   </rdf:RDF>
</x:xmpmeta>
                                                                                                    
                                                                                                    
                                                                                                    
                                                                                                    
                                                                                                    
                                                                                                    
                                                                                                    
                                                                                                    
                                                                                                    
                                                                                                    
                                                                                                    
                                                                                                    
                                                                                                    
                                                                                                    
                                                                                                    
                                                                                                    
                                                                                                    
                                                                                                    
                                                                                                    
                                                                                                    
                           
<?xpacket end="w"?></metadata>
<defs>
    <style>
      .cls-1 {
        fill: #6a7780;
        fill-rule: evenodd;
        opacity: 0.5;
      }
    </style>
  </defs>
  <path id="Фигура_28" data-name="Фигура 28" class="cls-1" d="M171.857,762.12V703.5a1.482,1.482,0,1,0-2.964,0v58.62A10.376,10.376,0,1,0,171.857,762.12ZM170.375,780a7.5,7.5,0,1,1,7.411-7.5A7.465,7.465,0,0,1,170.375,780Zm32.607-48.458V703.5a1.482,1.482,0,1,0-2.964,0v27.948a10.822,10.822,0,0,0,0,21.483V781.5a1.482,1.482,0,1,0,2.964,0V752.836A10.82,10.82,0,0,0,202.982,731.542ZM201.193,750a7.811,7.811,0,1,1,7.718-7.811A7.773,7.773,0,0,1,201.193,750ZM243,712.5a10.376,10.376,0,1,0-11.857,10.38V781.5a1.482,1.482,0,1,0,2.964,0V722.88A10.468,10.468,0,0,0,243,712.5ZM232.625,720a7.5,7.5,0,1,1,7.411-7.5A7.465,7.465,0,0,1,232.625,720Z" transform="translate(-160 -702)"/>
</svg>
