<svg xmlns="http://www.w3.org/2000/svg" width="94" height="94" viewBox="0 0 94 94">
  <metadata><?xpacket begin="﻿" id="W5M0MpCehiHzreSzNTczkc9d"?>
<x:xmpmeta xmlns:x="adobe:ns:meta/" x:xmptk="Adobe XMP Core 5.6-c138 79.159824, 2016/09/14-01:09:01        ">
   <rdf:RDF xmlns:rdf="http://www.w3.org/1999/02/22-rdf-syntax-ns#">
      <rdf:Description rdf:about=""/>
   </rdf:RDF>
</x:xmpmeta>
                                                                                                    
                                                                                                    
                                                                                                    
                                                                                                    
                                                                                                    
                                                                                                    
                                                                                                    
                                                                                                    
                                                                                                    
                                                                                                    
                                                                                                    
                                                                                                    
                                                                                                    
                                                                                                    
                                                                                                    
                                                                                                    
                                                                                                    
                                                                                                    
                                                                                                    
                                                                                                    
                           
<?xpacket end="w"?></metadata>
<defs>
    <style>
      .cls-1 {
        fill: #6b7780;
        fill-rule: evenodd;
        opacity: 0.5;
      }
    </style>
  </defs>
  <path id="Фигура_29" data-name="Фигура 29" class="cls-1" d="M748.7,742.915a1.513,1.513,0,0,0,1.132.017l19.186-7.38,20.7,7.391a1.515,1.515,0,0,0,1.891-2.05l-21.226-47a1.5,1.5,0,0,0-1.4-.892,1.515,1.515,0,0,0-1.377.929l-19.71,47A1.517,1.517,0,0,0,748.7,742.915Zm20.35-44.6,18.323,40.574-17.866-6.38a1.515,1.515,0,0,0-1.053.011l-16.394,6.307Zm45.432,40.169H811.4a42.507,42.507,0,0,0-25.1-37.263,1.516,1.516,0,1,0-1.237,2.768,39.471,39.471,0,0,1,23.3,34.5h-6.008a1.516,1.516,0,0,0,0,3.032h6.026a39.459,39.459,0,0,1-37.865,37.865v-6.026a1.516,1.516,0,0,0-3.032,0v6.026a39.46,39.46,0,0,1-37.866-37.865h6.027a1.516,1.516,0,0,0,0-3.032h-6.008a39.471,39.471,0,0,1,23.3-34.5,1.516,1.516,0,1,0-1.237-2.768,42.508,42.508,0,0,0-25.1,37.263h-3.088a1.516,1.516,0,0,0,0,3.032h3.07a42.493,42.493,0,0,0,40.9,40.9v3.07a1.516,1.516,0,0,0,3.032,0v-3.07a42.494,42.494,0,0,0,40.9-40.9h3.07A1.516,1.516,0,0,0,814.484,738.484Z" transform="translate(-722 -693)"/>
</svg>
