<svg xmlns="http://www.w3.org/2000/svg" width="78.969" height="86" viewBox="0 0 78.969 86">
  <metadata><?xpacket begin="﻿" id="W5M0MpCehiHzreSzNTczkc9d"?>
<x:xmpmeta xmlns:x="adobe:ns:meta/" x:xmptk="Adobe XMP Core 5.6-c138 79.159824, 2016/09/14-01:09:01        ">
   <rdf:RDF xmlns:rdf="http://www.w3.org/1999/02/22-rdf-syntax-ns#">
      <rdf:Description rdf:about=""/>
   </rdf:RDF>
</x:xmpmeta>
                                                                                                    
                                                                                                    
                                                                                                    
                                                                                                    
                                                                                                    
                                                                                                    
                                                                                                    
                                                                                                    
                                                                                                    
                                                                                                    
                                                                                                    
                                                                                                    
                                                                                                    
                                                                                                    
                                                                                                    
                                                                                                    
                                                                                                    
                                                                                                    
                                                                                                    
                                                                                                    
                           
<?xpacket end="w"?></metadata>
<defs>
    <style>
      .cls-1 {
        fill: #acb4ba;
        fill-rule: evenodd;
      }
    </style>
  </defs>
  <path id="Фигура_31" data-name="Фигура 31" class="cls-1" d="M202.883,1231.86a1.673,1.673,0,0,1-1.194-.5l-6.19-6.24a1.7,1.7,0,0,1-.5-1.2,1.715,1.715,0,0,1,.5-1.21,1.676,1.676,0,0,1,2.388,0l5,5.05,11.912-12.05a1.676,1.676,0,0,1,2.388,0,1.714,1.714,0,0,1,0,2.41l-13.106,13.24A1.712,1.712,0,0,1,202.883,1231.86ZM225.614,1279a9.05,9.05,0,0,1-8.991-9.08,9.141,9.141,0,0,1,1.47-4.99l0.45-.69H194.326l0.449,0.69a9.142,9.142,0,0,1,1.471,4.99,8.992,8.992,0,1,1-16.479-5.02l0.417-.64-0.749-.06a9.206,9.206,0,0,1-8.337-9.16v-53.62l-12.064-5.15a1.71,1.71,0,0,1-.913-0.95,1.653,1.653,0,0,1,.012-1.27,1.688,1.688,0,0,1,1.553-1.05,1.635,1.635,0,0,1,.651.14l13.1,5.54,0.107,0.06a0.42,0.42,0,0,0,.1.07,0.334,0.334,0,0,0,.055.04l0.03,0.03,0.046,0.02,0.046,0.03,0.058,0.06,0.041,0.03c0.008,0.01.222,0.22,0.222,0.22l0.017,0.04,0.03,0.03a0.261,0.261,0,0,0,.02.03,0.162,0.162,0,0,1,.026.04l0.058,0.11a0.8,0.8,0,0,0,.036.08s0.017,0.04.023,0.06,0.01,0.03.016,0.04h0c0.012,0.04.024,0.07,0.036,0.1a0.036,0.036,0,0,0,.009.02c0,0.01,0,.01,0,0.02v0.04l0.038,0.08c0,0.03.008,0.06,0.012,0.08l0,0.02v0.09l0.013,0.06a0.886,0.886,0,0,1,0,.12v39.64a5.767,5.767,0,0,0,5.728,5.79H227.9a5.767,5.767,0,0,0,5.728-5.79v-20.29a1.685,1.685,0,1,1,3.37,0v20.31a9.159,9.159,0,0,1-9.1,9.19H180.214a8.935,8.935,0,0,1-5.038-1.56l-0.69-.46v7.91a5.767,5.767,0,0,0,5.728,5.79h45.4A9.085,9.085,0,0,1,225.614,1279Zm-0.017-14.76a5.68,5.68,0,1,0,5.621,5.68A5.652,5.652,0,0,0,225.6,1264.24Zm-38.343,0a5.68,5.68,0,1,0,5.622,5.68A5.652,5.652,0,0,0,187.254,1264.24Z" transform="translate(-158.031 -1193)"/>
</svg>
