<svg xmlns="http://www.w3.org/2000/svg" xmlns:xlink="http://www.w3.org/1999/xlink" width="108" height="77" viewBox="0 0 108 77"><defs><path id="czfta" d="M657.62 630h-87.24a8.4 8.4 0 0 1-8.38-8.4v-57.22a8.4 8.4 0 0 1 8.38-8.4h87.24a8.4 8.4 0 0 1 8.38 8.4v57.22a8.4 8.4 0 0 1-8.38 8.4zm-87.24-70.66a5 5 0 0 0-2.41.62l42.08 36.71a6.28 6.28 0 0 0 7.9 0l42.08-36.71a5 5 0 0 0-2.41-.62zm-5.03 5.04v57.22a5.04 5.04 0 0 0 5.03 5.04h87.24a5.04 5.04 0 0 0 5.03-5.04v-57.22c0-.68-.14-1.33-.38-1.92l-42.11 36.74a9.36 9.36 0 0 1-6.16 2.23 9.37 9.37 0 0 1-6.16-2.23l-42.11-36.74a5.01 5.01 0 0 0-.38 1.92z"/></defs><g><g transform="translate(-560 -554)"><use fill="#dbdbdb" xlink:href="#czfta"/><use fill="#fff" fill-opacity="0" stroke="#f5f5f5" stroke-linecap="round" stroke-linejoin="round" stroke-miterlimit="50" xlink:href="#czfta"/></g></g></svg>