<svg xmlns="http://www.w3.org/2000/svg" width="31" height="31" viewBox="0 0 31 31">
  <metadata><?xpacket begin="﻿" id="W5M0MpCehiHzreSzNTczkc9d"?>
<x:xmpmeta xmlns:x="adobe:ns:meta/" x:xmptk="Adobe XMP Core 5.6-c138 79.159824, 2016/09/14-01:09:01        ">
   <rdf:RDF xmlns:rdf="http://www.w3.org/1999/02/22-rdf-syntax-ns#">
      <rdf:Description rdf:about=""/>
   </rdf:RDF>
</x:xmpmeta>
                                                                                                    
                                                                                                    
                                                                                                    
                                                                                                    
                                                                                                    
                                                                                                    
                                                                                                    
                                                                                                    
                                                                                                    
                                                                                                    
                                                                                                    
                                                                                                    
                                                                                                    
                                                                                                    
                                                                                                    
                                                                                                    
                                                                                                    
                                                                                                    
                                                                                                    
                                                                                                    
                           
<?xpacket end="w"?></metadata>
<defs>
    <style>
      .cls-1 {
        fill: #fff;
        fill-rule: evenodd;
      }
    </style>
  </defs>
  <path id="Фигура_22" data-name="Фигура 22" class="cls-1" d="M1794.01,1125.5l-13.73,13.82a0.99,0.99,0,0,0,0,1.39,0.99,0.99,0,0,0,1.38,0l13.83-13.93,13.83,13.93a0.99,0.99,0,0,0,1.38,0,0.99,0.99,0,0,0,0-1.39l-13.72-13.82,13.73-13.83a0.99,0.99,0,0,0,0-1.39,0.96,0.96,0,0,0-1.38,0l-13.84,13.93-13.84-13.93a0.96,0.96,0,0,0-1.38,0,0.99,0.99,0,0,0,0,1.39Z" transform="translate(-1780 -1110)"/>
</svg>
