<svg xmlns="http://www.w3.org/2000/svg" width="261" height="61.031" viewBox="0 0 261 61.031">
  <metadata><?xpacket begin="﻿" id="W5M0MpCehiHzreSzNTczkc9d"?>
<x:xmpmeta xmlns:x="adobe:ns:meta/" x:xmptk="Adobe XMP Core 5.6-c138 79.159824, 2016/09/14-01:09:01        ">
   <rdf:RDF xmlns:rdf="http://www.w3.org/1999/02/22-rdf-syntax-ns#">
      <rdf:Description rdf:about=""/>
   </rdf:RDF>
</x:xmpmeta>
                                                                                                    
                                                                                                    
                                                                                                    
                                                                                                    
                                                                                                    
                                                                                                    
                                                                                                    
                                                                                                    
                                                                                                    
                                                                                                    
                                                                                                    
                                                                                                    
                                                                                                    
                                                                                                    
                                                                                                    
                                                                                                    
                                                                                                    
                                                                                                    
                                                                                                    
                                                                                                    
                           
<?xpacket end="w"?></metadata>
<defs>
    <style>
      .cls-1 {
        fill: #fff;
        fill-rule: evenodd;
      }
    </style>
  </defs>
  <path id="Фигура_10" data-name="Фигура 10" class="cls-1" d="M862,453.259h12.885V466.1H862V453.259Zm14.683,0h12.886V466.1H876.681V453.259Zm18.979-4.28h12.885v12.839H895.66V448.979Zm14.683,0h12.885v12.839H910.343V448.979ZM895.66,463.908h12.885v12.839H895.66V463.908Zm14.683,0h12.885v12.839H910.343V463.908ZM862,467.889h12.885v12.839H862V467.889Zm14.683,0h12.886v12.839H876.681V467.889ZM862,482.519h12.885v12.839H862V482.519Zm14.683,0h12.886v12.839H876.681V482.519Zm14.983,0h12.885v12.839H891.664V482.519Zm14.683,0h12.886v12.839H906.347V482.519ZM862,497.15h12.885v12.838H862V497.15Zm14.683,0h12.886v12.838H876.681V497.15Zm14.983,0h12.885v12.838H891.664V497.15Zm14.683,0h12.886v12.838H906.347V497.15Zm30.666-3.782a20.143,20.143,0,0,1-2.6-.5V469.979a20.143,20.143,0,0,1,2.6-.5,29.353,29.353,0,0,1,3.3-.2,9.011,9.011,0,0,1,4.794,1.195,7.579,7.579,0,0,1,2.9,3.782,26.2,26.2,0,0,1,0,14.331,6.8,6.8,0,0,1-2.9,3.783,9.011,9.011,0,0,1-4.794,1.194A29.353,29.353,0,0,1,937.013,493.368Zm3.2-2.289a3.7,3.7,0,0,0,3.4-2.09q1.2-2.091,1.2-7.465t-1.2-7.464a3.7,3.7,0,0,0-3.4-2.091h-1.9v19.209h1.9v-0.1Zm12.585-16.721v-4.08h4.1v4.08h-4.1Zm0,18.91v-16.82h4.1v16.82h-4.1Zm11.088,6.868a8.347,8.347,0,0,1-2-.5v-1.692h3.7a3.433,3.433,0,0,0,2.9-1.2,6.609,6.609,0,0,0,1-3.981,4.349,4.349,0,0,1-2.9.8,5.169,5.169,0,0,1-4.5-2.09c-1-1.394-1.6-3.583-1.6-6.668,0-3.185.6-5.375,1.8-6.768s3.1-1.991,5.693-1.991a26.8,26.8,0,0,1,3,.2,15.282,15.282,0,0,1,2.6.8v14.83c0,2.986-.6,5.175-1.8,6.469a7.11,7.11,0,0,1-5.494,1.99A19.562,19.562,0,0,1,963.882,500.136Zm4.794-9.157a2.172,2.172,0,0,0,.8-0.5V478.339h-1.5a2.849,2.849,0,0,0-2.5,1.394c-0.6.895-.9,2.587-0.9,4.976a11.568,11.568,0,0,0,.8,4.976,2.334,2.334,0,0,0,2.2,1.394A1.379,1.379,0,0,0,968.676,490.979Zm9.39-16.621v-4.08h4.095v4.08h-4.095Zm0,18.91v-16.82h4.095v16.82h-4.095Zm10.388-.895c-0.9-.8-1.4-2.29-1.4-4.479v-8.659h-1.9v-2.488h1.9v-4.081h4.1v4.081h4.6v1.891c-0.6.2-1.2,0.3-2,.5a19.371,19.371,0,0,1-2.4.2h-0.2v8.559a4.3,4.3,0,0,0,.6,2.588,1.945,1.945,0,0,0,1.6.8h3v1.692a9.831,9.831,0,0,1-1.9.5,17.9,17.9,0,0,1-2.2.2A6.181,6.181,0,0,1,988.454,492.373Zm10.887,0c-0.9-.8-1.4-2.19-1.4-4.181q0-3.135,1.5-4.18a6.28,6.28,0,0,1,4.1-1.194,17.864,17.864,0,0,1,2.89.3v-1.393a3.344,3.344,0,0,0-.9-2.687,4.112,4.112,0,0,0-2.69-.7h-3.4v-1.692a19.334,19.334,0,0,1,2-.5,18.3,18.3,0,0,1,2.1-.2,13.76,13.76,0,0,1,3.89.5,3.8,3.8,0,0,1,2.2,1.692,6.794,6.794,0,0,1,.8,3.583v11.446h-2.9l-0.5-1h-0.2a5.125,5.125,0,0,1-3.69,1.394A5.6,5.6,0,0,1,999.341,492.373Zm6.289-1.394a2.185,2.185,0,0,0,.8-0.5v-5.375h-1.89a2.415,2.415,0,0,0-1.8.7,3.147,3.147,0,0,0-.7,2.289,3,3,0,0,0,.7,2.289,2.884,2.884,0,0,0,1.8.7A1.4,1.4,0,0,0,1005.63,490.979Zm9.39,2.289V469.681h4.1v23.587h-4.1Zm11.39-.8a6.929,6.929,0,0,1-2.6-3.782,29.776,29.776,0,0,1,0-14.531,7.222,7.222,0,0,1,2.5-3.782,7.732,7.732,0,0,1,4.2-1.1,30.567,30.567,0,0,1,3.09.2,10.07,10.07,0,0,1,2.3.5v1.891h-4.1a3.892,3.892,0,0,0-3.59,2.09c-0.8,1.393-1.3,3.882-1.3,7.464a21.664,21.664,0,0,0,.6,5.773,5.469,5.469,0,0,0,1.8,2.986,4.568,4.568,0,0,0,2.89.895h4.1v1.892a21.774,21.774,0,0,1-2.3.5,30.278,30.278,0,0,1-3.09.2A9.283,9.283,0,0,1,1026.41,492.472Zm13.09-.9c-1.1-1.393-1.7-3.583-1.7-6.668s0.6-5.375,1.7-6.668c1.09-1.393,2.79-1.991,5.09-1.991a6.314,6.314,0,0,1,5.09,1.991c1.1,1.393,1.7,3.583,1.7,6.668s-0.6,5.374-1.7,6.668c-1.09,1.394-2.79,1.991-5.09,1.991A6.314,6.314,0,0,1,1039.5,491.576Zm6.99-1.692a18.751,18.751,0,0,0,0-10.151,2.086,2.086,0,0,0-4,0,18.751,18.751,0,0,0,0,10.151,2.185,2.185,0,0,0,2,1.493A2.093,2.093,0,0,0,1046.49,489.884Zm8.39-13.535h2.89l0.5,1h0.2a5.314,5.314,0,0,1,3.9-1.393,5.6,5.6,0,0,1,3.8,1.194c0.89,0.8,1.39,2.19,1.39,4.18v11.744h-4.09V481.325a2.865,2.865,0,0,0-.8-2.289,2.646,2.646,0,0,0-1.9-.7,4.293,4.293,0,0,0-1.1.2,2.187,2.187,0,0,0-.8.5v14.133h-4.09v-16.82h0.1Zm18.78,16.024c-0.9-.8-1.4-2.29-1.4-4.479v-8.659h-1.9v-2.488h1.9v-4.081h4.09v4.081h4.6v1.891c-0.6.2-1.2,0.3-2,.5a9.737,9.737,0,0,1-2.4.2h-0.2v8.559a4.292,4.292,0,0,0,.6,2.588,1.948,1.948,0,0,0,1.6.8h3v1.692a9.839,9.839,0,0,1-1.9.5,17.949,17.949,0,0,1-2.2.2A6.163,6.163,0,0,1,1073.66,492.373Zm10.88,0c-0.89-.8-1.39-2.19-1.39-4.181,0-2.09.5-3.483,1.49-4.18a6.285,6.285,0,0,1,4.1-1.194,17.971,17.971,0,0,1,2.9.3v-1.393a3.344,3.344,0,0,0-.9-2.687,4.16,4.16,0,0,0-2.7-.7h-3.4v-1.692a19.361,19.361,0,0,1,2-.5,18.3,18.3,0,0,1,2.1-.2,13.785,13.785,0,0,1,3.9.5,4.4,4.4,0,0,1,2.29,1.692,6.794,6.794,0,0,1,.8,3.583v11.446h-2.9l-0.49-1h-0.3a5.15,5.15,0,0,1-3.7,1.394A5.6,5.6,0,0,1,1084.54,492.373Zm6.3-1.394a2.185,2.185,0,0,0,.8-0.5v-5.375h-1.9a2.415,2.415,0,0,0-1.8.7,3.147,3.147,0,0,0-.7,2.289,3,3,0,0,0,.7,2.289,2.884,2.884,0,0,0,1.8.7A1.426,1.426,0,0,0,1090.84,490.979Zm10.09,0.6c-1.2-1.393-1.7-3.583-1.7-6.668s0.6-5.375,1.7-6.668c1.09-1.393,2.79-1.991,5.09-1.991a19.613,19.613,0,0,1,2.4.2,8.138,8.138,0,0,1,1.99.5v1.692h-3.69a2.853,2.853,0,0,0-2.5,1.393c-0.6.9-.9,2.588-0.9,4.977s0.3,4.08.9,4.976a3.128,3.128,0,0,0,2.8,1.393h3.69v1.692c-0.59.2-1.19,0.3-1.99,0.5a19.613,19.613,0,0,1-2.4.2C1103.82,493.567,1102.02,492.87,1100.93,491.576Zm14.18,0.8c-0.9-.8-1.4-2.29-1.4-4.479v-8.659h-1.9v-2.488h1.9v-4.081h4.1v4.081h4.59v1.891c-0.6.2-1.2,0.3-2,.5a19.259,19.259,0,0,1-2.39.2h-0.2v8.559a4.292,4.292,0,0,0,.6,2.588,1.929,1.929,0,0,0,1.59.8h3v1.692a9.839,9.839,0,0,1-1.9.5,17.97,17.97,0,0,1-2.19.2A6.194,6.194,0,0,1,1115.11,492.373Z" transform="translate(-862 -448.969)"/>
</svg>
