<svg xmlns="http://www.w3.org/2000/svg" xmlns:xlink="http://www.w3.org/1999/xlink" width="323" height="323" viewBox="0 0 323 323"><defs><path id="zviga" d="M1110.66 1988a9.34 9.34 0 1 1 0 18.69 9.34 9.34 0 0 1 0-18.69z"/><path id="zvigb" d="M1111.5 1957a40.5 40.5 0 1 1 0 81 40.5 40.5 0 0 1 0-81z"/><path id="zvigc" d="M1111 1917a80 80 0 1 1 0 160 80 80 0 0 1 0-160z"/><path id="zvigd" d="M1111 1887c60.75 0 110 49.25 110 110s-49.25 110-110 110-110-49.25-110-110 49.25-110 110-110z"/><path id="zvige" d="M1111 1837c88.37 0 160 71.63 160 160s-71.63 160-160 160-160-71.63-160-160 71.63-160 160-160z"/><mask id="zvigg" width="5.38" height="5.38" x="-2.69" y="-2.69"><path fill="#fff" d="M1068.9 1955.9h83.2v83.2h-83.2z"/><use xlink:href="#zviga"/></mask><filter id="zvigf" width="377" height="377" x="922" y="1809" filterUnits="userSpaceOnUse"><feOffset in="SourceGraphic" result="FeOffset1032Out"/><feGaussianBlur in="FeOffset1032Out" result="FeGaussianBlur1033Out" stdDeviation="54.760000000000005 54.760000000000005"/></filter><clipPath id="zvigh"><use fill="#fff" xlink:href="#zvigb"/></clipPath><clipPath id="zvigi"><use fill="#fff" xlink:href="#zvigc"/></clipPath><clipPath id="zvigj"><use fill="#fff" xlink:href="#zvigd"/></clipPath><clipPath id="zvigk"><use fill="#fff" xlink:href="#zvige"/></clipPath></defs><g><g transform="translate(-949 -1835)"><g filter="url(#zvigf)"><use fill="none" stroke="#82cff2" stroke-width="64.2" mask="url(&quot;#zvigg&quot;)" xlink:href="#zviga"/><use fill="#82cff2" xlink:href="#zviga"/></g><g filter="url(#zvigf)"><use fill="none" stroke="#82cff2" stroke-width="64.2" mask="url(&quot;#zvigg&quot;)" xlink:href="#zviga"/><use fill="#82cff2" xlink:href="#zviga"/></g><use fill="#82cff2" xlink:href="#zviga"/></g><g opacity=".11" transform="translate(-949 -1835)"><use fill="#fff" fill-opacity="0" stroke="#fff" stroke-miterlimit="50" stroke-width="2" clip-path="url(&quot;#zvigh&quot;)" xlink:href="#zvigb"/></g><g opacity=".15" transform="translate(-949 -1835)"><use fill="#fff" fill-opacity="0" stroke="#fff" stroke-miterlimit="50" stroke-width="2" clip-path="url(&quot;#zvigi&quot;)" xlink:href="#zvigc"/></g><g opacity=".15" transform="translate(-949 -1835)"><use fill="#fff" fill-opacity="0" stroke="#fff" stroke-miterlimit="50" stroke-width="2" clip-path="url(&quot;#zvigj&quot;)" xlink:href="#zvigd"/></g><g opacity=".05" transform="translate(-949 -1835)"><use fill="#fff" fill-opacity="0" stroke="#fff" stroke-miterlimit="50" stroke-width="2" clip-path="url(&quot;#zvigk&quot;)" xlink:href="#zvige"/></g></g></svg>