<svg xmlns="http://www.w3.org/2000/svg" xmlns:xlink="http://www.w3.org/1999/xlink" width="322" height="322" viewBox="0 0 322 322"><defs><path id="xrkka" d="M1548.5 1876a40.5 40.5 0 1 1 0 81 40.5 40.5 0 0 1 0-81z"/><path id="xrkkb" d="M1548 1836a80 80 0 1 1 0 160 80 80 0 0 1 0-160z"/><path id="xrkkc" d="M1548 1806c60.75 0 110 49.25 110 110s-49.25 110-110 110-110-49.25-110-110 49.25-110 110-110z"/><path id="xrkkd" d="M1548 1756c88.37 0 160 71.63 160 160s-71.63 160-160 160-160-71.63-160-160 71.63-160 160-160z"/><path id="xrkke" d="M1548.5 1894a21.5 21.5 0 1 1 0 43 21.5 21.5 0 0 1 0-43z"/><path id="xrkkf" d="M1628 1900a5 5 0 1 1 0 10 5 5 0 0 1 0-10z"/><path id="xrkkg" d="M1465 2044a7 7 0 1 1 0 14 7 7 0 0 1 0-14z"/><path id="xrkkh" d="M1483.5 1867a2.5 2.5 0 1 1 0 5 2.5 2.5 0 0 1 0-5z"/><clipPath id="xrkki"><use fill="#fff" xlink:href="#xrkka"/></clipPath><clipPath id="xrkkj"><use fill="#fff" xlink:href="#xrkkb"/></clipPath><clipPath id="xrkkk"><use fill="#fff" xlink:href="#xrkkc"/></clipPath><clipPath id="xrkkl"><use fill="#fff" xlink:href="#xrkkd"/></clipPath><mask id="xrkkn" width="3.49" height="3.49" x="-1.75" y="-1.75"><path fill="#fff" d="M1494.9 1861.9h107.2v107.2h-107.2z"/><use xlink:href="#xrkke"/></mask><filter id="xrkkm" width="401" height="401" x="1348" y="1715" filterUnits="userSpaceOnUse"><feOffset in="SourceGraphic" result="FeOffset1290Out"/><feGaussianBlur in="FeOffset1290Out" result="FeGaussianBlur1291Out" stdDeviation="54.760000000000005 54.760000000000005"/></filter><mask id="xrkkp" width="2.8" height="2.8" x="-1.4" y="-1.4"><path fill="#fff" d="M1619 1896h18v18h-18z"/><use xlink:href="#xrkkf"/></mask><filter id="xrkko" width="72" height="72" x="1592" y="1869" filterUnits="userSpaceOnUse"><feOffset in="SourceGraphic" result="FeOffset1312Out"/><feGaussianBlur in="FeOffset1312Out" result="FeGaussianBlur1313Out" stdDeviation="6.8 6.8"/></filter><mask id="xrkkr" width="2.66" height="2.66" x="-1.33" y="-1.33"><path fill="#fff" d="M1453.4 2039.4h23.2v23.2h-23.2z"/><use xlink:href="#xrkkg"/></mask><filter id="xrkkq" width="82" height="82" x="1424" y="2010" filterUnits="userSpaceOnUse"><feOffset in="SourceGraphic" result="FeOffset1334Out"/><feGaussianBlur in="FeOffset1334Out" result="FeGaussianBlur1335Out" stdDeviation="7.76 7.76"/></filter><mask id="xrkkt" width="3.84" height="3.84" x="-1.92" y="-1.92"><path fill="#fff" d="M1476.4 1862.4h14.2v14.2h-14.2z"/><use xlink:href="#xrkkh"/></mask><filter id="xrkks" width="73" height="73" x="1447" y="1833" filterUnits="userSpaceOnUse"><feOffset in="SourceGraphic" result="FeOffset1356Out"/><feGaussianBlur in="FeOffset1356Out" result="FeGaussianBlur1357Out" stdDeviation="7.76 7.76"/></filter></defs><g><g opacity=".11" transform="translate(-1387 -1755)"><use fill="#fff" fill-opacity="0" stroke="#fff" stroke-miterlimit="50" stroke-width="2" clip-path="url(&quot;#xrkki&quot;)" xlink:href="#xrkka"/></g><g opacity=".15" transform="translate(-1387 -1755)"><use fill="#fff" fill-opacity="0" stroke="#fff" stroke-miterlimit="50" stroke-width="2" clip-path="url(&quot;#xrkkj&quot;)" xlink:href="#xrkkb"/></g><g opacity=".15" transform="translate(-1387 -1755)"><use fill="#fff" fill-opacity="0" stroke="#fff" stroke-miterlimit="50" stroke-width="2" clip-path="url(&quot;#xrkkk&quot;)" xlink:href="#xrkkc"/></g><g opacity=".05" transform="translate(-1387 -1755)"><use fill="#fff" fill-opacity="0" stroke="#fff" stroke-miterlimit="50" stroke-width="2" clip-path="url(&quot;#xrkkl&quot;)" xlink:href="#xrkkd"/></g><g transform="translate(-1387 -1755)"><g filter="url(#xrkkm)"><use fill="none" stroke="#82cff2" stroke-width="64.2" mask="url(&quot;#xrkkn&quot;)" xlink:href="#xrkke"/><use fill="#82cff2" xlink:href="#xrkke"/></g><g filter="url(#xrkkm)"><use fill="none" stroke="#82cff2" stroke-width="64.2" mask="url(&quot;#xrkkn&quot;)" xlink:href="#xrkke"/><use fill="#82cff2" xlink:href="#xrkke"/></g><use fill="#82cff2" xlink:href="#xrkke"/></g><g transform="translate(-1387 -1755)"><g filter="url(#xrkko)"><use fill="none" stroke="#dfeff7" stroke-opacity=".48" stroke-width="8" mask="url(&quot;#xrkkp&quot;)" xlink:href="#xrkkf"/><use fill="#dfeff7" fill-opacity=".48" xlink:href="#xrkkf"/></g><g filter="url(#xrkko)"><use fill="none" stroke="#dfeff7" stroke-opacity=".48" stroke-width="8" mask="url(&quot;#xrkkp&quot;)" xlink:href="#xrkkf"/><use fill="#dfeff7" fill-opacity=".48" xlink:href="#xrkkf"/></g><use fill="#fff" xlink:href="#xrkkf"/></g><g transform="translate(-1387 -1755)"><g filter="url(#xrkkq)"><use fill="none" stroke="#82cff2" stroke-opacity=".47" stroke-width="9.2" mask="url(&quot;#xrkkr&quot;)" xlink:href="#xrkkg"/><use fill="#82cff2" fill-opacity=".47" xlink:href="#xrkkg"/></g><g filter="url(#xrkkq)"><use fill="none" stroke="#82cff2" stroke-opacity=".47" stroke-width="9.2" mask="url(&quot;#xrkkr&quot;)" xlink:href="#xrkkg"/><use fill="#82cff2" fill-opacity=".47" xlink:href="#xrkkg"/></g><use fill="#fff" xlink:href="#xrkkg"/></g><g transform="translate(-1387 -1755)"><g filter="url(#xrkks)"><use fill="none" stroke="#82cff2" stroke-opacity=".47" stroke-width="9.2" mask="url(&quot;#xrkkt&quot;)" xlink:href="#xrkkh"/><use fill="#82cff2" fill-opacity=".47" xlink:href="#xrkkh"/></g><g filter="url(#xrkks)"><use fill="none" stroke="#82cff2" stroke-opacity=".47" stroke-width="9.2" mask="url(&quot;#xrkkt&quot;)" xlink:href="#xrkkh"/><use fill="#82cff2" fill-opacity=".47" xlink:href="#xrkkh"/></g><use fill="#fff" xlink:href="#xrkkh"/></g></g></svg>