<svg xmlns="http://www.w3.org/2000/svg" width="9" height="17" viewBox="0 0 9 17">
  <metadata><?xpacket begin="﻿" id="W5M0MpCehiHzreSzNTczkc9d"?>
<x:xmpmeta xmlns:x="adobe:ns:meta/" x:xmptk="Adobe XMP Core 5.6-c138 79.159824, 2016/09/14-01:09:01        ">
   <rdf:RDF xmlns:rdf="http://www.w3.org/1999/02/22-rdf-syntax-ns#">
      <rdf:Description rdf:about=""/>
   </rdf:RDF>
</x:xmpmeta>
                                                                                                    
                                                                                                    
                                                                                                    
                                                                                                    
                                                                                                    
                                                                                                    
                                                                                                    
                                                                                                    
                                                                                                    
                                                                                                    
                                                                                                    
                                                                                                    
                                                                                                    
                                                                                                    
                                                                                                    
                                                                                                    
                                                                                                    
                                                                                                    
                                                                                                    
                                                                                                    
                           
<?xpacket end="w"?></metadata>
<defs>
    <style>
      .cls-1 {
        fill: #cccbd9;
        fill-rule: evenodd;
        opacity: 0.2;
      }
    </style>
  </defs>
  <path id="Фигура_7_копия" data-name="Фигура 7 копия" class="cls-1" d="M384.661,2015H382.5a3.831,3.831,0,0,0-3.992,4.18v1.93h-2.171a0.347,0.347,0,0,0-.339.35v2.79a0.347,0.347,0,0,0,.339.35h2.171v7.05a0.347,0.347,0,0,0,.339.35h2.832a0.347,0.347,0,0,0,.339-0.35v-7.05h2.538a0.346,0.346,0,0,0,.339-0.35v-2.79a0.373,0.373,0,0,0-.1-0.25,0.355,0.355,0,0,0-.24-0.1H382.02v-1.63a0.978,0.978,0,0,1,1.186-1.19h1.454a0.347,0.347,0,0,0,.34-0.35v-2.59A0.347,0.347,0,0,0,384.661,2015Z" transform="translate(-376 -2015)"/>
</svg>
