<svg xmlns="http://www.w3.org/2000/svg" width="13" height="13" viewBox="0 0 13 13">
  <metadata><?xpacket begin="﻿" id="W5M0MpCehiHzreSzNTczkc9d"?>
<x:xmpmeta xmlns:x="adobe:ns:meta/" x:xmptk="Adobe XMP Core 5.6-c138 79.159824, 2016/09/14-01:09:01        ">
   <rdf:RDF xmlns:rdf="http://www.w3.org/1999/02/22-rdf-syntax-ns#">
      <rdf:Description rdf:about=""/>
   </rdf:RDF>
</x:xmpmeta>
                                                                                                    
                                                                                                    
                                                                                                    
                                                                                                    
                                                                                                    
                                                                                                    
                                                                                                    
                                                                                                    
                                                                                                    
                                                                                                    
                                                                                                    
                                                                                                    
                                                                                                    
                                                                                                    
                                                                                                    
                                                                                                    
                                                                                                    
                                                                                                    
                                                                                                    
                                                                                                    
                           
<?xpacket end="w"?></metadata>
<defs>
    <style>
      .cls-1 {
        fill: #fff;
        fill-rule: evenodd;
      }
    </style>
  </defs>
  <path id="Фигура_25" data-name="Фигура 25" class="cls-1" d="M1553.87,1125.81a21.627,21.627,0,0,0-3.14-1.82,0.12,0.12,0,0,1-.07-0.1v-1.21a2.632,2.632,0,0,0,.37-0.95,1.036,1.036,0,0,0,.53-0.87c0.27-.92-0.02-1.06-0.26-1.04a2.664,2.664,0,0,0,.1-0.38c0.42-2.38-.82-2.46-0.82-2.46a1.787,1.787,0,0,0-.74-0.66,2.609,2.609,0,0,0-1.53-.31,2.437,2.437,0,0,0-.61.11h0a3.211,3.211,0,0,0-.67.33,3.572,3.572,0,0,0-.69.54,2.631,2.631,0,0,0-.74,1.24,2.6,2.6,0,0,0,0,1.21h0a2.719,2.719,0,0,0,.11.38c-0.25-.02-0.54.12-0.26,1.04a1.036,1.036,0,0,0,.53.87,2.841,2.841,0,0,0,.36.96v1.2a0.11,0.11,0,0,1-.06.1,21.086,21.086,0,0,0-3.14,1.82,2.667,2.667,0,0,0-1.14,2.17v0.32a0.715,0.715,0,0,0,.73.7h11.54a0.715,0.715,0,0,0,.73-0.7v-0.32A2.618,2.618,0,0,0,1553.87,1125.81Z" transform="translate(-1542 -1116)"/>
</svg>
