<svg xmlns="http://www.w3.org/2000/svg" xmlns:xlink="http://www.w3.org/1999/xlink" width="36" height="36" viewBox="0 0 36 36"><defs><path id="3zpaa" d="M983 81v-7h7v7z"/><path id="3zpab" d="M983 89v-7h7v7z"/><path id="3zpac" d="M983 97v-7h7v7z"/><path id="3zpad" d="M983 105v-7h7v7z"/><path id="3zpae" d="M991 81v-7h7v7z"/><path id="3zpaf" d="M991 89v-7h7v7z"/><path id="3zpag" d="M991 97v-7h7v7z"/><path id="3zpah" d="M991 105v-7h7v7z"/><path id="3zpai" d="M999 97v-7h7v7z"/><path id="3zpaj" d="M999 105v-7h7v7z"/><path id="3zpak" d="M1007 97v-7h7v7z"/><path id="3zpal" d="M1007 105v-7h7v7z"/><path id="3zpam" d="M1001 79v-7h7v7z"/><path id="3zpan" d="M1001 87v-7h7v7z"/><path id="3zpao" d="M1009 79v-7h7v7z"/><path id="3zpap" d="M1009 87v-7h7v7z"/></defs><g><g transform="translate(-981 -70)"><g><use fill="#fff" xlink:href="#3zpaa"/></g><g><use fill="#fff" xlink:href="#3zpab"/></g><g><use fill="#fff" xlink:href="#3zpac"/></g><g><use fill="#fff" xlink:href="#3zpad"/></g><g><use fill="#fff" xlink:href="#3zpac"/></g><g><use fill="#fff" xlink:href="#3zpab"/></g><g><use fill="#fff" xlink:href="#3zpaa"/></g><g><use fill="#fff" xlink:href="#3zpae"/></g><g><use fill="#fff" xlink:href="#3zpaf"/></g><g><use fill="#fff" xlink:href="#3zpag"/></g><g><use fill="#fff" xlink:href="#3zpah"/></g><g><use fill="#fff" xlink:href="#3zpai"/></g><g><use fill="#fff" xlink:href="#3zpaj"/></g><g><use fill="#fff" xlink:href="#3zpak"/></g><g><use fill="#fff" xlink:href="#3zpal"/></g><g><use fill="#e9512b" xlink:href="#3zpam"/></g><g><use fill="#e9512b" xlink:href="#3zpan"/></g><g><use fill="#e9512b" xlink:href="#3zpao"/></g><g><use fill="#e9512b" xlink:href="#3zpap"/></g></g></g></svg>