<svg xmlns="http://www.w3.org/2000/svg" width="17" height="17" viewBox="0 0 17 17">
  <metadata><?xpacket begin="﻿" id="W5M0MpCehiHzreSzNTczkc9d"?>
<x:xmpmeta xmlns:x="adobe:ns:meta/" x:xmptk="Adobe XMP Core 5.6-c138 79.159824, 2016/09/14-01:09:01        ">
   <rdf:RDF xmlns:rdf="http://www.w3.org/1999/02/22-rdf-syntax-ns#">
      <rdf:Description rdf:about=""/>
   </rdf:RDF>
</x:xmpmeta>
                                                                                                    
                                                                                                    
                                                                                                    
                                                                                                    
                                                                                                    
                                                                                                    
                                                                                                    
                                                                                                    
                                                                                                    
                                                                                                    
                                                                                                    
                                                                                                    
                                                                                                    
                                                                                                    
                                                                                                    
                                                                                                    
                                                                                                    
                                                                                                    
                                                                                                    
                                                                                                    
                           
<?xpacket end="w"?></metadata>
<defs>
    <style>
      .cls-1 {
        fill: #fff;
        fill-rule: evenodd;
      }
    </style>
  </defs>
  <path id="Фигура_26_копия_4" data-name="Фигура 26 копия 4" class="cls-1" d="M1492.62,1128.45l-2.63-2.64a1.371,1.371,0,0,0-1.93.04l-1.32,1.33c-0.08-.05-0.17-0.1-0.26-0.15a12.852,12.852,0,0,1-3.18-2.31,13.141,13.141,0,0,1-2.31-3.19c-0.05-.09-0.09-0.17-0.14-0.26l0.89-.88,0.43-.44a1.374,1.374,0,0,0,.04-1.94l-2.63-2.63a1.362,1.362,0,0,0-1.93.04l-0.74.74,0.02,0.02a4.946,4.946,0,0,0-.61,1.08,4.644,4.644,0,0,0-.27,1.1c-0.34,2.88.97,5.51,4.53,9.08,4.93,4.94,8.9,4.56,9.07,4.55a4.805,4.805,0,0,0,1.1-.28,4.183,4.183,0,0,0,1.07-.61l0.01,0.02,0.75-.74A1.371,1.371,0,0,0,1492.62,1128.45Z" transform="translate(-1476 -1115)"/>
</svg>
