<svg xmlns="http://www.w3.org/2000/svg" xmlns:xlink="http://www.w3.org/1999/xlink" width="163" height="162" viewBox="0 0 163 162"><defs><path id="ekzma" d="M674.03 2044.84a9.34 9.34 0 1 1 0 18.7 9.34 9.34 0 0 1 0-18.7z"/><path id="ekzmb" d="M674.5 2014a40.5 40.5 0 1 1 0 81 40.5 40.5 0 0 1 0-81z"/><path id="ekzmc" d="M674 1974a80 80 0 1 1 0 160 80 80 0 0 1 0-160z"/><mask id="ekzme" width="2.84" height="2.84" x="-1.42" y="-1.42"><path fill="#fff" d="M655.6 2035.6h36.8v36.8h-36.8z"/><use xlink:href="#ekzma"/></mask><filter id="ekzmd" width="280" height="280" x="534" y="1914" filterUnits="userSpaceOnUse"><feOffset in="SourceGraphic" result="FeOffset1206Out"/><feGaussianBlur in="FeOffset1206Out" result="FeGaussianBlur1207Out" stdDeviation="44.64 44.64"/></filter><clipPath id="ekzmf"><use fill="#fff" xlink:href="#ekzmb"/></clipPath><clipPath id="ekzmg"><use fill="#fff" xlink:href="#ekzmc"/></clipPath></defs><g><g transform="translate(-592 -1973)"><g filter="url(#ekzmd)"><use fill="none" stroke="#82cff2" stroke-opacity=".63" stroke-width="16.8" mask="url(&quot;#ekzme&quot;)" xlink:href="#ekzma"/><use fill="#82cff2" fill-opacity=".63" xlink:href="#ekzma"/></g><g filter="url(#ekzmd)"><use fill="none" stroke="#82cff2" stroke-opacity=".63" stroke-width="16.8" mask="url(&quot;#ekzme&quot;)" xlink:href="#ekzma"/><use fill="#82cff2" fill-opacity=".63" xlink:href="#ekzma"/></g><use fill="#82cff2" xlink:href="#ekzma"/></g><g opacity=".11" transform="translate(-592 -1973)"><use fill="#fff" fill-opacity="0" stroke="#fff" stroke-miterlimit="50" stroke-width="2" clip-path="url(&quot;#ekzmf&quot;)" xlink:href="#ekzmb"/></g><g opacity=".05" transform="translate(-592 -1973)"><use fill="#fff" fill-opacity="0" stroke="#fff" stroke-miterlimit="50" stroke-width="2" clip-path="url(&quot;#ekzmg&quot;)" xlink:href="#ekzmc"/></g></g></svg>