<svg xmlns="http://www.w3.org/2000/svg" width="18" height="10" viewBox="0 0 18 10">
  <metadata><?xpacket begin="﻿" id="W5M0MpCehiHzreSzNTczkc9d"?>
<x:xmpmeta xmlns:x="adobe:ns:meta/" x:xmptk="Adobe XMP Core 5.6-c138 79.159824, 2016/09/14-01:09:01        ">
   <rdf:RDF xmlns:rdf="http://www.w3.org/1999/02/22-rdf-syntax-ns#">
      <rdf:Description rdf:about=""/>
   </rdf:RDF>
</x:xmpmeta>
                                                                                                    
                                                                                                    
                                                                                                    
                                                                                                    
                                                                                                    
                                                                                                    
                                                                                                    
                                                                                                    
                                                                                                    
                                                                                                    
                                                                                                    
                                                                                                    
                                                                                                    
                                                                                                    
                                                                                                    
                                                                                                    
                                                                                                    
                                                                                                    
                                                                                                    
                                                                                                    
                           
<?xpacket end="w"?></metadata>
<defs>
    <style>
      .cls-1 {
        fill: #cccbd9;
        fill-rule: evenodd;
        opacity: 0.2;
      }
    </style>
  </defs>
  <path id="Фигура_6_копия" data-name="Фигура 6 копия" class="cls-1" d="M326.9,2027.03a0.737,0.737,0,0,0-.061-0.11,9.185,9.185,0,0,0-1.79-2.02l-0.019-.02-0.009-.01-0.01-.01h-0.009a9.826,9.826,0,0,1-.759-0.75,0.675,0.675,0,0,1-.132-0.73,6.881,6.881,0,0,1,.844-1.2q0.384-.48.609-0.78c1.081-1.4,1.55-2.29,1.406-2.68l-0.056-.09a0.629,0.629,0,0,0-.29-0.15,1.451,1.451,0,0,0-.6-0.02l-2.7.01a0.418,0.418,0,0,0-.188.01l-0.122.03-0.047.02-0.037.03a0.558,0.558,0,0,0-.1.09,0.708,0.708,0,0,0-.094.16,15.024,15.024,0,0,1-1,2.06c-0.231.37-.443,0.7-0.637,0.98a5.227,5.227,0,0,1-.487.61,3.367,3.367,0,0,1-.357.31,0.311,0.311,0,0,1-.243.1l-0.159-.03a0.624,0.624,0,0,1-.211-0.23,0.95,0.95,0,0,1-.108-0.35c-0.019-.15-0.03-0.27-0.033-0.37s0-.25,0-0.44,0.009-.32.009-0.38c0-.24,0-0.49.014-0.76s0.017-.48.024-0.64,0.009-.33.009-0.5a2.063,2.063,0,0,0-.033-0.42,1.437,1.437,0,0,0-.1-0.29,0.514,0.514,0,0,0-.192-0.22,1.131,1.131,0,0,0-.314-0.12,6.946,6.946,0,0,0-1.265-.12,6.3,6.3,0,0,0-2.24.22,1.425,1.425,0,0,0-.356.27c-0.113.14-.129,0.21-0.047,0.22a1.207,1.207,0,0,1,.8.39l0.056,0.11a1.735,1.735,0,0,1,.132.42,4.139,4.139,0,0,1,.084.67,6.955,6.955,0,0,1,0,1.14c-0.031.32-.061,0.56-0.089,0.74a1.4,1.4,0,0,1-.127.43c-0.056.11-.093,0.17-0.112,0.2a0.624,0.624,0,0,1-.047.05,0.718,0.718,0,0,1-.253.04,0.569,0.569,0,0,1-.318-0.13,1.981,1.981,0,0,1-.389-0.35,5.182,5.182,0,0,1-.455-0.62c-0.169-.27-0.344-0.59-0.525-0.95l-0.15-.27c-0.093-.17-0.221-0.42-0.384-0.74s-0.306-.64-0.431-0.95a0.653,0.653,0,0,0-.225-0.29l-0.047-.03a0.558,0.558,0,0,0-.15-0.07,0.8,0.8,0,0,0-.215-0.06l-2.568.02a0.65,0.65,0,0,0-.535.17l-0.037.05a0.294,0.294,0,0,0-.028.15,0.714,0.714,0,0,0,.056.25c0.375,0.85.782,1.68,1.223,2.48s0.823,1.44,1.148,1.92,0.656,0.95.993,1.38,0.561,0.71.67,0.83,0.2,0.22.258,0.28l0.235,0.22a5.861,5.861,0,0,0,.66.52q0.436,0.3.966,0.6a5.439,5.439,0,0,0,1.232.49,4.657,4.657,0,0,0,1.369.15h1.077a0.792,0.792,0,0,0,.5-0.2l0.037-.05a0.613,0.613,0,0,0,.071-0.17,0.872,0.872,0,0,0,.032-0.25,2.969,2.969,0,0,1,.061-0.71,1.819,1.819,0,0,1,.16-0.47,1.033,1.033,0,0,1,.2-0.27,0.684,0.684,0,0,1,.16-0.13,0.153,0.153,0,0,1,.074-0.03,0.581,0.581,0,0,1,.53.14,2.977,2.977,0,0,1,.572.53c0.178,0.21.392,0.44,0.642,0.7a4.1,4.1,0,0,0,.656.59l0.187,0.11a2.445,2.445,0,0,0,.488.2,1.08,1.08,0,0,0,.524.04l2.4-.03a1.066,1.066,0,0,0,.553-0.12,0.44,0.44,0,0,0,.234-0.25,0.7,0.7,0,0,0,0-.31A1.262,1.262,0,0,0,326.9,2027.03Z" transform="translate(-309 -2018)"/>
</svg>
