<svg xmlns="http://www.w3.org/2000/svg" width="17" height="12" viewBox="0 0 17 12">
  <metadata><?xpacket begin="﻿" id="W5M0MpCehiHzreSzNTczkc9d"?>
<x:xmpmeta xmlns:x="adobe:ns:meta/" x:xmptk="Adobe XMP Core 5.6-c138 79.159824, 2016/09/14-01:09:01        ">
   <rdf:RDF xmlns:rdf="http://www.w3.org/1999/02/22-rdf-syntax-ns#">
      <rdf:Description rdf:about=""/>
   </rdf:RDF>
</x:xmpmeta>
                                                                                                    
                                                                                                    
                                                                                                    
                                                                                                    
                                                                                                    
                                                                                                    
                                                                                                    
                                                                                                    
                                                                                                    
                                                                                                    
                                                                                                    
                                                                                                    
                                                                                                    
                                                                                                    
                                                                                                    
                                                                                                    
                                                                                                    
                                                                                                    
                                                                                                    
                                                                                                    
                           
<?xpacket end="w"?></metadata>
<defs>
    <style>
      .cls-1 {
        fill: #cccbd9;
        fill-rule: evenodd;
        opacity: 0.2;
      }
    </style>
  </defs>
  <path id="Фигура_8_копия" data-name="Фигура 8 копия" class="cls-1" d="M449.337,2018.03c-0.614-.73-1.746-1.03-3.91-1.03h-7.854c-2.214,0-3.366.32-3.977,1.1-0.6.75-.6,1.87-0.6,3.42v2.95c0,3.01.707,4.53,4.573,4.53h7.854c1.876,0,2.916-.26,3.589-0.91,0.689-.66.984-1.74,0.984-3.62v-2.95C450,2019.89,449.954,2018.76,449.337,2018.03Zm-5.423,5.38-3.567,1.87a0.568,0.568,0,0,1-.254.06,0.577,0.577,0,0,1-.284-0.08,0.553,0.553,0,0,1-.264-0.47v-3.73a0.554,0.554,0,0,1,.263-0.47,0.544,0.544,0,0,1,.538-0.02l3.566,1.86a0.554,0.554,0,0,1,.3.49A0.565,0.565,0,0,1,443.914,2023.41Z" transform="translate(-433 -2017)"/>
</svg>
