<svg xmlns="http://www.w3.org/2000/svg" width="28" height="28" viewBox="0 0 28 28">
  <metadata><?xpacket begin="﻿" id="W5M0MpCehiHzreSzNTczkc9d"?>
<x:xmpmeta xmlns:x="adobe:ns:meta/" x:xmptk="Adobe XMP Core 5.6-c138 79.159824, 2016/09/14-01:09:01        ">
   <rdf:RDF xmlns:rdf="http://www.w3.org/1999/02/22-rdf-syntax-ns#">
      <rdf:Description rdf:about=""/>
   </rdf:RDF>
</x:xmpmeta>
                                                                                                    
                                                                                                    
                                                                                                    
                                                                                                    
                                                                                                    
                                                                                                    
                                                                                                    
                                                                                                    
                                                                                                    
                                                                                                    
                                                                                                    
                                                                                                    
                                                                                                    
                                                                                                    
                                                                                                    
                                                                                                    
                                                                                                    
                                                                                                    
                                                                                                    
                                                                                                    
                           
<?xpacket end="w"?></metadata>
<defs>
    <style>
      .cls-1 {
        fill: #c6ced4;
        fill-rule: evenodd;
      }
    </style>
  </defs>
  <path id="Фигура_26" data-name="Фигура 26" class="cls-1" d="M266.123,741.972a13.94,13.94,0,0,0-5.095-5.1,14.094,14.094,0,0,0-14.055,0,13.94,13.94,0,0,0-5.1,5.1,14.087,14.087,0,0,0,0,14.055,13.94,13.94,0,0,0,5.1,5.095,14.087,14.087,0,0,0,14.055,0,13.94,13.94,0,0,0,5.095-5.095A14.094,14.094,0,0,0,266.123,741.972ZM261,750l-9.917,5.833a1.106,1.106,0,0,1-.583.164,1.3,1.3,0,0,1-.583-0.145,1.116,1.116,0,0,1-.583-1.021V743.167a1.116,1.116,0,0,1,.583-1.021,1.091,1.091,0,0,1,1.166.018L261,748A1.153,1.153,0,0,1,261,750Z" transform="translate(-240 -735)"/>
</svg>
