<svg xmlns="http://www.w3.org/2000/svg" xmlns:xlink="http://www.w3.org/1999/xlink" width="36" height="36" viewBox="0 0 36 36"><defs><path id="h70fa" d="M983 81v-7h7v7z"/><path id="h70fb" d="M983 89v-7h7v7z"/><path id="h70fc" d="M983 97v-7h7v7z"/><path id="h70fd" d="M983 105v-7h7v7z"/><path id="h70fe" d="M991 81v-7h7v7z"/><path id="h70ff" d="M991 89v-7h7v7z"/><path id="h70fg" d="M991 97v-7h7v7z"/><path id="h70fh" d="M991 105v-7h7v7z"/><path id="h70fi" d="M999 97v-7h7v7z"/><path id="h70fj" d="M999 105v-7h7v7z"/><path id="h70fk" d="M1007 97v-7h7v7z"/><path id="h70fl" d="M1007 105v-7h7v7z"/><path id="h70fm" d="M1001 79v-7h7v7z"/><path id="h70fn" d="M1001 87v-7h7v7z"/><path id="h70fo" d="M1009 79v-7h7v7z"/><path id="h70fp" d="M1009 87v-7h7v7z"/></defs><g><g transform="translate(-981 -70)"><g><use fill="#fff" xlink:href="#h70fa"/></g><g><use fill="#fff" xlink:href="#h70fb"/></g><g><use fill="#fff" xlink:href="#h70fc"/></g><g><use fill="#fff" xlink:href="#h70fd"/></g><g><use fill="#fff" xlink:href="#h70fc"/></g><g><use fill="#fff" xlink:href="#h70fb"/></g><g><use fill="#fff" xlink:href="#h70fa"/></g><g><use fill="#fff" xlink:href="#h70fe"/></g><g><use fill="#fff" xlink:href="#h70ff"/></g><g><use fill="#fff" xlink:href="#h70fg"/></g><g><use fill="#fff" xlink:href="#h70fh"/></g><g><use fill="#fff" xlink:href="#h70fi"/></g><g><use fill="#fff" xlink:href="#h70fj"/></g><g><use fill="#fff" xlink:href="#h70fk"/></g><g><use fill="#fff" xlink:href="#h70fl"/></g><g><use fill="#e9512b" xlink:href="#h70fm"/></g><g><use fill="#e9512b" xlink:href="#h70fn"/></g><g><use fill="#e9512b" xlink:href="#h70fo"/></g><g><use fill="#e9512b" xlink:href="#h70fp"/></g></g></g></svg>