<svg xmlns="http://www.w3.org/2000/svg" width="96" height="79" viewBox="0 0 96 79">
  <metadata><?xpacket begin="﻿" id="W5M0MpCehiHzreSzNTczkc9d"?>
<x:xmpmeta xmlns:x="adobe:ns:meta/" x:xmptk="Adobe XMP Core 5.6-c138 79.159824, 2016/09/14-01:09:01        ">
   <rdf:RDF xmlns:rdf="http://www.w3.org/1999/02/22-rdf-syntax-ns#">
      <rdf:Description rdf:about=""/>
   </rdf:RDF>
</x:xmpmeta>
                                                                                                    
                                                                                                    
                                                                                                    
                                                                                                    
                                                                                                    
                                                                                                    
                                                                                                    
                                                                                                    
                                                                                                    
                                                                                                    
                                                                                                    
                                                                                                    
                                                                                                    
                                                                                                    
                                                                                                    
                                                                                                    
                                                                                                    
                                                                                                    
                                                                                                    
                                                                                                    
                           
<?xpacket end="w"?></metadata>
<defs>
    <style>
      .cls-1 {
        fill: #6b7780;
        fill-rule: evenodd;
        opacity: 0.5;
      }
    </style>
  </defs>
  <path id="Фигура_30" data-name="Фигура 30" class="cls-1" d="M1388.92,759.414c-0.65-6.687-5.62-11.533-11.83-11.533-3.9,0-7.17,2.37-9.25,5.253-2.08-2.885-5.35-5.255-9.25-5.255-6.21,0-11.18,4.846-11.83,11.534a11.467,11.467,0,0,0,.37,4.43,18.361,18.361,0,0,0,5.9,9.437l14.81,12.734,14.81-12.737a18.336,18.336,0,0,0,5.9-9.432A11.7,11.7,0,0,0,1388.92,759.414Zm-3.53,3.642a15.056,15.056,0,0,1-4.86,7.74l-12.69,10.911L1355.16,770.8a14.973,14.973,0,0,1-4.87-7.744,8.813,8.813,0,0,1-.32-3.1l0.03-.172c0.4-4.288,3.48-8.629,8.59-8.629,3.56,0,6.47,2.962,7.76,5.9l1.49,3.369,1.49-3.369c1.29-2.936,4.19-5.9,7.76-5.9,5.12,0,8.19,4.341,8.61,8.776A8.191,8.191,0,0,1,1385.39,763.056ZM1334.27,746a9.054,9.054,0,0,0,11.81.007l38.03-33.754v29.083a1.625,1.625,0,1,0,3.25,0V708.592a1.7,1.7,0,0,0-.1-0.541c-0.01-.011-0.01-0.02-0.02-0.031-0.02-.043-0.04-0.075-0.06-0.116a1.723,1.723,0,0,0-.25-0.367c-0.04-.045-0.09-0.085-0.13-0.125a1.63,1.63,0,0,0-.33-0.225c-0.06-.027-0.11-0.057-0.16-0.078a1.588,1.588,0,0,0-.57-0.116h-91.12a1.588,1.588,0,0,0-.57.116,1.081,1.081,0,0,0-.16.078,1.63,1.63,0,0,0-.33.225,1.031,1.031,0,0,0-.13.125,1.723,1.723,0,0,0-.25.367,0.567,0.567,0,0,0-.06.114,0.058,0.058,0,0,0-.02.031,1.465,1.465,0,0,0-.1.542c0,0.013-.01.024-0.01,0.037v63.783c0,0.005.01,0.01,0.01,0.015a1.567,1.567,0,0,0,.08.522c0.01,0.021.02,0.036,0.03,0.056,0.02,0.055.06,0.1,0.08,0.153a1.836,1.836,0,0,0,.23.335,1.061,1.061,0,0,0,.14.136,1.507,1.507,0,0,0,.32.221c0.06,0.028.11,0.06,0.17,0.082a1.567,1.567,0,0,0,.57.116h48.81a1.636,1.636,0,0,0,0-3.271H1299.3c7.4-5.894,24.09-19.266,32.66-26.825Zm47.17-35.739-37.52,33.3a5.741,5.741,0,0,1-7.49,0l-3.22-2.856c-0.01-.011-0.01-0.026-0.02-0.038-0.04-.044-0.09-0.063-0.13-0.1l-34.14-30.3h82.52Zm-85.19,58.773V712.256l33.25,29.513C1320.46,749.708,1302.9,763.75,1296.25,769.037Z" transform="translate(-1293 -707)"/>
</svg>
