<svg xmlns="http://www.w3.org/2000/svg" width="115" height="75" viewBox="0 0 115 75">
  <metadata><?xpacket begin="﻿" id="W5M0MpCehiHzreSzNTczkc9d"?>
<x:xmpmeta xmlns:x="adobe:ns:meta/" x:xmptk="Adobe XMP Core 5.6-c138 79.159824, 2016/09/14-01:09:01        ">
   <rdf:RDF xmlns:rdf="http://www.w3.org/1999/02/22-rdf-syntax-ns#">
      <rdf:Description rdf:about=""/>
   </rdf:RDF>
</x:xmpmeta>
                                                                                                    
                                                                                                    
                                                                                                    
                                                                                                    
                                                                                                    
                                                                                                    
                                                                                                    
                                                                                                    
                                                                                                    
                                                                                                    
                                                                                                    
                                                                                                    
                                                                                                    
                                                                                                    
                                                                                                    
                                                                                                    
                                                                                                    
                                                                                                    
                                                                                                    
                                                                                                    
                           
<?xpacket end="w"?></metadata>
<defs>
    <style>
      .cls-1 {
        fill: #acb4ba;
        fill-rule: evenodd;
      }
    </style>
  </defs>
  <path id="Фигура_32" data-name="Фигура 32" class="cls-1" d="M801.512,1211.68l-29.083-10.04a11.282,11.282,0,0,0-8.478.52l-1.46.71a8.272,8.272,0,0,1-6.382.35l-2.5-.89a2.031,2.031,0,0,0-.353-0.19l-14.883-5.07a1.5,1.5,0,0,0-1.083.07,1.407,1.407,0,0,0-.707.81l-12.5,36.48a1.412,1.412,0,0,0,.872,1.79l14.906,5.11a1.144,1.144,0,0,0,.471.1,1.313,1.313,0,0,0,.613-0.15,1.361,1.361,0,0,0,.706-0.8l12.034-35.09,1.507,0.54a11.191,11.191,0,0,0,8.572-.49l1.46-.71a8.238,8.238,0,0,1,6.311-.4l28,9.66a6.672,6.672,0,0,1-2.331,4.31c-1.366.94-3.344,0.99-5.84,0.11l-12.222-4.17a1.485,1.485,0,0,0-1.131.1,1.509,1.509,0,0,0-.706.89c-0.024.07-1.837,6.76-7.489,9.78-3.579,1.93-8.007,2-13.164.23a1.412,1.412,0,0,0-.918,2.67,24.251,24.251,0,0,0,7.794,1.41,15.747,15.747,0,0,0,7.63-1.86c5.04-2.71,7.466-7.66,8.384-10.11l10.856,3.73c3.415,1.17,6.217,1.01,8.384-.48,3.485-2.4,3.65-7.34,3.673-7.56A1.4,1.4,0,0,0,801.512,1211.68ZM739.46,1238.2l-12.245-4.19,11.586-33.8,11.916,4.07c0.094,0.05.188,0.1,0.282,0.14l0.047,0.03Zm99.4-5.63-17-34.55a1.4,1.4,0,0,0-1.884-.64l-14.153,6.92a1.425,1.425,0,0,0-.659,1.89l16.484,33.68-5.534,5.07a66.131,66.131,0,0,1-15.707,10.71L773.3,1268.91a3.042,3.042,0,0,1-2.4.15,3.218,3.218,0,0,1-1.813-1.61,3.035,3.035,0,0,1-.141-2.4,3.172,3.172,0,0,1,1.6-1.81l15.142-7.42a1.414,1.414,0,0,0-1.224-2.55l-14.813,7.26-7.465,3.65a3.148,3.148,0,0,1-2.779-5.65l21.76-10.65a1.41,1.41,0,1,0-1.225-2.54l-16.107,7.89-5.652,2.75-2.661,1.3a3.153,3.153,0,0,1-2.779-5.66l2.685-1.31,19.475-9.54a1.414,1.414,0,0,0-1.225-2.55l-12.5,6.13-6.97,3.41a3,3,0,0,1-2.4.14,3.16,3.16,0,0,1-1.813-1.6,3.04,3.04,0,0,1-.142-2.4,3.174,3.174,0,0,1,1.6-1.81l10.338-5.07a1.41,1.41,0,1,0-1.225-2.54l-10.338,5.06a5.994,5.994,0,0,0-3.038,3.44,5.926,5.926,0,0,0,.283,4.57,5.828,5.828,0,0,0,2.52,2.61,5.972,5.972,0,0,0,4.191,10.23c0.259,0,.518-0.03.778-0.05a6.027,6.027,0,0,0,.518,3.6,5.965,5.965,0,0,0,5.369,3.35,5.873,5.873,0,0,0,2.614-.61l2.567-1.28a5.7,5.7,0,0,0,.588,3.23,5.986,5.986,0,0,0,3.439,3.04,6.241,6.241,0,0,0,1.954.33,6,6,0,0,0,2.614-.61l27.105-13.26a68.744,68.744,0,0,0,16.367-11.19l6.146-5.66,13.965-6.83A1.411,1.411,0,0,0,838.861,1232.57Zm-14.836,5.75-15.707-32.11,11.633-5.67,15.684,32.1Z" transform="translate(-724 -1197)"/>
</svg>
