<svg xmlns="http://www.w3.org/2000/svg" width="94" height="95" viewBox="0 0 94 95">
  <metadata><?xpacket begin="﻿" id="W5M0MpCehiHzreSzNTczkc9d"?>
<x:xmpmeta xmlns:x="adobe:ns:meta/" x:xmptk="Adobe XMP Core 5.6-c138 79.159824, 2016/09/14-01:09:01        ">
   <rdf:RDF xmlns:rdf="http://www.w3.org/1999/02/22-rdf-syntax-ns#">
      <rdf:Description rdf:about=""/>
   </rdf:RDF>
</x:xmpmeta>
                                                                                                    
                                                                                                    
                                                                                                    
                                                                                                    
                                                                                                    
                                                                                                    
                                                                                                    
                                                                                                    
                                                                                                    
                                                                                                    
                                                                                                    
                                                                                                    
                                                                                                    
                                                                                                    
                                                                                                    
                                                                                                    
                                                                                                    
                                                                                                    
                                                                                                    
                                                                                                    
                           
<?xpacket end="w"?></metadata>
<defs>
    <style>
      .cls-1 {
        fill: #acb4ba;
        stroke: #eef2f5;
        stroke-linejoin: round;
        stroke-width: 1px;
        fill-rule: evenodd;
      }
    </style>
  </defs>
  <path id="Фигура_33" data-name="Фигура 33" class="cls-1" d="M1378.51,1216.76l-37.8,14.56a1.83,1.83,0,0,0-1.18,1.71v45.14a1.826,1.826,0,0,0,2.49,1.71l37.8-14.56a1.83,1.83,0,0,0,1.18-1.71v-45.14A1.832,1.832,0,0,0,1378.51,1216.76Zm-1.18,45.6-34.13,13.14v-41.21l34.13-13.15v41.22Zm-44.04-31.04-37.8-14.56a1.828,1.828,0,0,0-2.49,1.71v45.14a1.859,1.859,0,0,0,1.17,1.72l37.81,14.55a1.81,1.81,0,0,0,2.49-1.71v-45.14A1.83,1.83,0,0,0,1333.29,1231.32Zm-2.49,44.18-34.13-13.14v-41.22l34.13,13.15v41.21Zm47.66-67.59-40.8-15.79a1.772,1.772,0,0,0-1.32,0l-40.8,15.79a1.839,1.839,0,0,0,0,3.42l40.8,15.79a1.841,1.841,0,0,0,1.32,0l40.8-15.79A1.826,1.826,0,0,0,1378.46,1207.91ZM1337,1223.44l-35.72-13.82L1337,1195.8l35.72,13.82Z" transform="translate(-1290 -1189)"/>
</svg>
